<svg xmlns="http://www.w3.org/2000/svg" viewBox="0 0 64 64" role="img" aria-labelledby="title">
  <title>NounPaddi Icon</title>
  <defs>
    <linearGradient id="npGradient" x1="8" y1="8" x2="56" y2="56" gradientUnits="userSpaceOnUse">
      <stop offset="0" stop-color="#2563eb"/>
      <stop offset="0.6" stop-color="#1d4ed8"/>
      <stop offset="1" stop-color="#0f766e"/>
    </linearGradient>
  </defs>
  <rect x="8" y="8" width="48" height="48" rx="12" fill="url(#npGradient)"/>
  <path d="M24 20h16a6 6 0 0 1 6 6v18a2 2 0 0 1-2.97 1.75L32 40.2l-11.03 5.55A2 2 0 0 1 18 44V26a6 6 0 0 1 6-6Z" fill="#fff" opacity="0.96"/>
  <path d="M24 24h16a2 2 0 0 1 2 2v14.76l-9.1-4.58a2 2 0 0 0-1.8 0L22 40.76V26a2 2 0 0 1 2-2Z" fill="url(#npGradient)"/>
</svg>
